<svg xmlns="http://www.w3.org/2000/svg" width="55" height="59" viewBox="0 0 55 59">
    <g fill="#ABB2C1" fill-rule="nonzero">
        <path d="M53.199 47.02a1 1 0 0 0-1.18.781C50.903 53.303 46.574 57 41.249 57c-5.028 0-9.446-3.3-10.948-8H35v-2h-8v8h2v-3.849C31.169 55.833 35.915 59 41.249 59c6.304 0 11.42-4.341 12.731-10.801a1 1 0 0 0-.781-1.179zM53 35v4.309C50.75 34.854 46.296 32 41.249 32c-6.109 0-11.541 3.997-13.209 9.721a1 1 0 1 0 1.92.558C31.358 37.482 36.105 34 41.249 34c4.565 0 8.562 2.766 10.33 7H47v2h8v-8h-2z"/>
        <path d="M25 41.185c-.827 0-1.637-.016-2.432-.044-.483-.018-.95-.049-1.422-.076-.296-.017-.6-.028-.891-.049a59.02 59.02 0 0 1-1.835-.165c-.118-.012-.242-.021-.359-.034a54.55 54.55 0 0 1-2.012-.257l-.066-.009c-3.382-.5-6.284-1.261-8.554-2.167l-.044-.017c-.417-.167-.807-.34-1.18-.516-.045-.021-.093-.042-.138-.064a16.347 16.347 0 0 1-.94-.494c-.072-.041-.146-.081-.216-.122a11.448 11.448 0 0 1-.718-.461c-.087-.061-.177-.121-.259-.182a8.174 8.174 0 0 1-.524-.425c-.09-.079-.18-.157-.261-.237a5.21 5.21 0 0 1-.582-.668 3.729 3.729 0 0 1-.231-.369 2.449 2.449 0 0 1-.259-.659c-.036-.162-.077-.325-.077-.485v-8.207c.028.026.063.051.092.077.218.191.44.382.69.566 3.767 2.85 11.301 5.063 22.219 5.063 10.872 0 18.386-2.196 22.169-5.028.302-.22.574-.447.83-.678h.001v3.707a1 1 0 1 0 2 0v-20a.98.98 0 0 0-.115-.444C48.695 3.769 38.195 0 25 0 11.805 0 1.304 3.769.115 8.74A.98.98 0 0 0 0 9.185v37c0 .161.042.313.115.448 1.139 4.833 10.691 7.68 19.81 8.364a.998.998 0 0 0 1.072-.922 1 1 0 0 0-.922-1.072c-11.114-.834-17.591-4.219-18.043-6.98A.963.963 0 0 0 2 45.892v-8.414c.028.026.063.051.092.077.218.191.44.382.69.566 3.767 2.85 11.301 5.063 22.219 5.063A1 1 0 1 0 25 41.185zM2.601 13.981c.3.236.624.469.975.696.073.047.155.093.231.14.295.183.605.363.933.538a21.377 21.377 0 0 0 1.518.735c.066.029.126.059.193.087.469.199.967.389 1.485.572.143.051.293.099.44.149.412.139.838.272 1.279.401.159.046.315.094.478.139.585.162 1.189.316 1.823.458.087.02.181.037.269.056a43.778 43.778 0 0 0 2.348.444c.567.093 1.151.179 1.75.257.154.02.301.042.457.062.744.09 1.514.167 2.305.233.195.016.398.028.596.042.633.046 1.28.084 1.942.114.241.011.481.022.727.03.863.03 1.741.05 2.65.05.909 0 1.788-.021 2.65-.05.245-.008.485-.02.727-.03.662-.03 1.309-.068 1.942-.114.198-.015.4-.026.596-.042a60.436 60.436 0 0 0 2.305-.233c.156-.019.303-.042.457-.062a53.904 53.904 0 0 0 2.363-.361 43.778 43.778 0 0 0 1.735-.34c.088-.019.182-.036.269-.056a37.577 37.577 0 0 0 1.823-.458c.163-.045.319-.092.478-.139.441-.128.867-.262 1.279-.401.147-.05.297-.098.44-.149a27.194 27.194 0 0 0 1.485-.572c.067-.028.127-.059.193-.087a21.377 21.377 0 0 0 1.518-.735c.327-.175.638-.354.932-.538.076-.047.158-.093.231-.14.351-.227.675-.459.975-.696.075-.06.142-.12.215-.18.13-.108.267-.215.387-.324v8.207c0 .161-.041.323-.079.485a2.412 2.412 0 0 1-.116.362 3.39 3.39 0 0 1-.593.943 5.63 5.63 0 0 1-.363.391c-.082.08-.171.158-.261.237a8.174 8.174 0 0 1-.524.425c-.082.061-.172.121-.259.182-.225.155-.46.31-.718.461-.069.041-.144.082-.216.122-.296.167-.606.333-.94.494-.045.022-.093.043-.138.064-.373.176-.763.349-1.18.516l-.044.017c-2.27.906-5.172 1.667-8.554 2.167l-.066.009c-.653.096-1.324.182-2.012.257-.117.013-.241.021-.359.034-.602.062-1.21.12-1.835.165-.291.021-.595.032-.891.049-.471.027-.938.059-1.422.076a69.063 69.063 0 0 1-4.864 0c-.483-.018-.95-.049-1.422-.076-.296-.017-.6-.028-.891-.049a59.02 59.02 0 0 1-1.835-.165c-.118-.012-.242-.021-.359-.034a54.55 54.55 0 0 1-2.012-.257l-.066-.009c-3.382-.5-6.284-1.261-8.554-2.167l-.044-.017c-.417-.167-.807-.34-1.18-.516-.045-.021-.093-.042-.138-.064a16.347 16.347 0 0 1-.94-.494c-.072-.041-.146-.081-.216-.122a11.448 11.448 0 0 1-.718-.461c-.087-.061-.177-.121-.259-.182a8.174 8.174 0 0 1-.524-.425c-.09-.079-.18-.157-.261-.237a5.21 5.21 0 0 1-.582-.668 3.729 3.729 0 0 1-.231-.369 2.449 2.449 0 0 1-.259-.659c-.034-.161-.075-.324-.075-.484v-8.207c.12.109.257.216.387.324.072.059.139.12.214.179zM25 2c13.555 0 23 4.05 23 7.685 0 3.548-9.445 7.5-23 7.5s-23-3.952-23-7.5C2 6.05 11.445 2 25 2z"/>
    </g>
</svg>
