<svg xmlns="http://www.w3.org/2000/svg" width="58" height="58" viewBox="0 0 58 58">
    <g fill="#ABB2C1" fill-rule="nonzero">
        <path d="M53.5 40v-1c0-3.859-3.14-7-7-7s-7 3.141-7 7v1h-4v18h22V40h-4zm-12-1c0-2.757 2.243-5 5-5s5 2.243 5 5v1h-10v-1zm14 17h-18V42h18v14z"/>
        <path d="M46.5 44c-2.206 0-4 1.794-4 4 0 1.859 1.28 3.411 3 3.858V53a1 1 0 1 0 2 0v-1.142c1.72-.447 3-1.999 3-3.858 0-2.206-1.794-4-4-4zm0 6c-1.103 0-2-.897-2-2s.897-2 2-2 2 .897 2 2-.897 2-2 2zM28 10c3.425 0 5.897.83 7.346 2.466 1.692 1.911 1.415 4.361 1.413 4.381l-.009 5.701.33.298c.359.324.557.758.557 1.223v3.545a1.65 1.65 0 0 1-1.181 1.574 1 1 0 1 0 .589 1.912 3.64 3.64 0 0 0 2.591-3.486v-3.545c0-.866-.318-1.708-.886-2.369v-4.667c.052-.52.236-3.448-1.883-5.864C35.024 9.065 32.041 8 28 8c-4.041 0-7.024 1.065-8.867 3.168-2.119 2.416-1.935 5.346-1.883 5.864v4.667a3.645 3.645 0 0 0-.886 2.369v3.545a3.64 3.64 0 0 0 1.339 2.821c.81 3.173 2.476 5.575 3.092 6.389v2.894a2.23 2.23 0 0 1-1.162 1.958l-7.907 4.313a7.301 7.301 0 0 0-.752.477C5.776 41.792 2.5 35.022 2.5 27.5 2.5 13.439 13.939 2 28 2s25.5 11.439 25.5 25.5a1 1 0 1 0 2 0C55.5 12.337 43.164 0 28 0S.5 12.337.5 27.5c0 8.01 3.444 15.229 8.927 20.259l-.026.023.891.751c.056.047.117.086.173.133.477.396.972.772 1.476 1.136.159.115.318.23.479.341a28.149 28.149 0 0 0 3.893 2.243l.141.064a27.259 27.259 0 0 0 6.65 2.105l.185.033c.723.125 1.455.225 2.197.292.09.008.181.013.271.021.741.06 1.487.099 2.243.099a1 1 0 1 0 0-2 25.43 25.43 0 0 1-1.895-.078c-.109-.008-.218-.015-.326-.025a25.538 25.538 0 0 1-1.893-.234l-.077-.014a25.545 25.545 0 0 1-3.903-.974l-.102-.035a25.625 25.625 0 0 1-3.601-1.544c-.067-.035-.135-.068-.201-.103a25.756 25.756 0 0 1-1.94-1.156 25.598 25.598 0 0 1-1.343-.936l-.133-.104.097-.054 7.907-4.313a4.23 4.23 0 0 0 2.204-3.714v-3.603l-.233-.278c-.021-.025-2.176-2.634-2.999-6.215l-.091-.396-.341-.221a1.657 1.657 0 0 1-.769-1.392v-3.545c0-.465.198-.898.557-1.223l.33-.298v-5.57l-.009-.131c-.003-.024-.298-2.429 1.396-4.36C22.083 10.837 24.56 10 28 10z"/>
    </g>
</svg>
