<svg xmlns="http://www.w3.org/2000/svg" width="55" height="57" viewBox="0 0 55 57">
    <g fill="#ABB2C1" fill-rule="nonzero">
        <path d="M47.179 38.429l-5.596 8.04-3.949-3.241a1 1 0 0 0-1.407.138.998.998 0 0 0 .139 1.407l4.786 3.929a.998.998 0 0 0 1.455-.201l6.214-8.929a1 1 0 0 0-1.642-1.143z"/>
        <path d="M50 33.774V9a.98.98 0 0 0-.146-.49C48.697 4.22 40.078 0 25 0S1.303 4.22.146 8.51A.98.98 0 0 0 0 9v37a.93.93 0 0 0 .117.451C1.297 51.346 11.864 55 25 55c3.166 0 6.247-.22 9.176-.643A12.916 12.916 0 0 0 42 57c7.168 0 13-5.832 13-13 0-4.15-1.962-7.844-5-10.226zm-3.251-1.863c-.14-.055-.281-.104-.422-.155-.311-.11-.627-.208-.948-.295-.16-.043-.319-.087-.48-.124a13.016 13.016 0 0 0-.995-.182c-.148-.022-.294-.051-.443-.068A13.312 13.312 0 0 0 42 31c-.415 0-.824.024-1.23.063-.135.013-.267.035-.401.051-.269.034-.537.072-.801.123a11.02 11.02 0 0 0-.453.098 12.697 12.697 0 0 0-1.908.594c-.119.047-.24.091-.357.142-.331.143-.655.299-.971.468-.025.014-.052.025-.078.039-.358.195-.704.407-1.041.633-.037.025-.072.053-.109.079-.29.199-.571.41-.844.632-.067.054-.13.111-.196.167a13.418 13.418 0 0 0-.897.835c-.215.22-.422.448-.621.684-.061.072-.123.142-.182.215-.202.249-.392.505-.576.769-.046.066-.095.129-.139.195-.217.325-.424.659-.612 1.006-.015.027-.027.055-.042.082-.167.313-.323.635-.465.964-.083.191-.153.39-.228.586-.06.16-.123.319-.177.482-.078.233-.144.472-.209.711-.021.077-.048.15-.067.228-.398.027-.797.051-1.197.07-.267.013-.532.03-.799.04-.8.026-1.601.044-2.4.044-.827 0-1.637-.016-2.432-.044-.482-.018-.947-.049-1.417-.076-.297-.017-.603-.028-.895-.049a58.617 58.617 0 0 1-1.829-.165c-.12-.013-.246-.021-.365-.034a56.105 56.105 0 0 1-2.005-.256l-.072-.009c-3.379-.499-6.279-1.26-8.548-2.165l-.051-.02a21.474 21.474 0 0 1-1.174-.514c-.047-.022-.097-.044-.144-.067-.333-.16-.64-.325-.935-.491-.073-.042-.15-.083-.221-.125-.256-.15-.49-.304-.714-.458-.089-.062-.18-.123-.263-.185a8.329 8.329 0 0 1-.786-.662 5.509 5.509 0 0 1-.583-.67 3.434 3.434 0 0 1-.373-.666 2.488 2.488 0 0 1-.114-.356C2.041 33.825 2 33.662 2 33.5v-8.207l.057.048c.232.205.47.409.738.605C6.567 28.791 14.095 31 25 31c10.88 0 18.396-2.199 22.177-5.034.29-.212.55-.431.799-.653l.024-.021v7.181c-.053-.028-.11-.046-.164-.074a13.096 13.096 0 0 0-1.087-.488zM2.601 13.797c.3.236.624.469.975.696.073.047.155.093.231.14a17.11 17.11 0 0 0 1.299.731c.365.186.748.366 1.151.542.066.029.126.059.193.087.469.199.967.389 1.485.572.143.051.293.099.44.149.412.139.838.272 1.279.401.159.046.315.094.478.139.585.162 1.189.316 1.823.458.087.02.181.037.269.056a43.778 43.778 0 0 0 2.348.444c.567.093 1.151.179 1.75.257.154.02.301.042.457.062.744.09 1.514.167 2.305.233.195.016.398.028.596.042.633.046 1.28.084 1.942.114.241.011.481.022.727.03.863.029 1.741.05 2.651.05.91 0 1.788-.021 2.65-.05.245-.008.485-.02.727-.03.662-.03 1.309-.068 1.942-.114.198-.015.4-.026.596-.042a60.436 60.436 0 0 0 2.305-.233c.156-.019.303-.042.457-.062a53.904 53.904 0 0 0 2.363-.361 43.778 43.778 0 0 0 1.735-.34c.088-.019.182-.036.269-.056a37.577 37.577 0 0 0 1.823-.458c.163-.045.319-.092.478-.139.441-.128.867-.262 1.279-.401.147-.05.297-.098.44-.149a27.194 27.194 0 0 0 1.485-.572c.067-.028.127-.059.193-.087a21.377 21.377 0 0 0 1.518-.735c.327-.175.638-.354.932-.538.076-.047.158-.093.231-.14.351-.227.675-.459.975-.696.075-.06.142-.12.215-.18.13-.108.267-.215.387-.324V21.5c0 .163-.041.327-.08.491a2.545 2.545 0 0 1-.26.66 3.667 3.667 0 0 1-.451.646 5.339 5.339 0 0 1-.625.627c-.16.139-.327.278-.513.415-.086.064-.18.127-.271.19-.222.153-.453.305-.706.453-.074.044-.153.087-.23.13a16.19 16.19 0 0 1-.926.487l-.153.071c-.369.174-.754.345-1.166.51l-.058.022c-2.269.904-5.166 1.665-8.543 2.164l-.074.01a56.28 56.28 0 0 1-2.003.256c-.12.013-.246.022-.367.034-.599.062-1.204.12-1.827.165-.293.021-.599.032-.897.049-.469.027-.934.059-1.416.076a69.222 69.222 0 0 1-4.866 0c-.482-.018-.947-.049-1.417-.076-.297-.017-.603-.028-.895-.049a58.617 58.617 0 0 1-1.829-.165c-.12-.013-.246-.021-.365-.034a56.105 56.105 0 0 1-2.005-.256l-.072-.009c-3.379-.499-6.279-1.26-8.548-2.165l-.051-.02a21.474 21.474 0 0 1-1.174-.514c-.047-.022-.097-.044-.144-.067-.333-.16-.64-.325-.935-.491-.073-.042-.15-.083-.221-.125-.256-.15-.49-.304-.714-.458-.089-.062-.18-.123-.263-.185a8.329 8.329 0 0 1-.786-.662 5.509 5.509 0 0 1-.583-.67 3.434 3.434 0 0 1-.373-.666 2.488 2.488 0 0 1-.114-.356C2.041 21.825 2 21.662 2 21.5v-8.207c.12.109.257.216.387.324.072.06.139.12.214.18zM25 2c13.554 0 23 3.952 23 7.5S38.554 17 25 17 2 13.048 2 9.5 11.446 2 25 2zm0 51c-13.037 0-22.401-3.703-22.968-7.162A.928.928 0 0 0 2 45.707v-8.414l.057.048c.232.205.47.409.738.605C6.567 40.791 14.095 43 25 43c.797 0 1.596-.019 2.394-.047.239-.008.476-.021.715-.032.314-.014.63-.023.943-.042-.034.38-.052.754-.052 1.121 0 .425.024.847.064 1.265.013.135.038.267.055.4.036.282.074.563.129.84.029.147.067.29.101.436.061.261.124.521.2.778.041.138.089.273.135.41a10.724 10.724 0 0 0 .439 1.133 12.897 12.897 0 0 0 1.192 2.126c.166.239.341.471.523.699.075.095.15.19.228.282.063.075.12.155.185.229A64.288 64.288 0 0 1 25 53zm17 2a10.954 10.954 0 0 1-7.799-3.252c-.108-.109-.206-.227-.309-.34-.151-.165-.303-.33-.443-.503-.119-.147-.228-.301-.34-.454a10.316 10.316 0 0 1-.323-.461 11.541 11.541 0 0 1-.821-1.506 9.96 9.96 0 0 1-.224-.547 10.9 10.9 0 0 1-.186-.506c-.068-.208-.125-.42-.181-.632-.041-.156-.087-.311-.121-.47-.054-.25-.092-.504-.128-.759-.019-.129-.045-.256-.059-.388A11.06 11.06 0 0 1 31 44a11.043 11.043 0 0 1 .38-2.819c.019-.073.036-.146.056-.219.063-.22.137-.435.212-.648.042-.117.083-.234.128-.35.07-.177.146-.352.225-.524a10.645 10.645 0 0 1 .752-1.377c.067-.105.133-.21.204-.313.14-.202.289-.398.442-.59.053-.066.102-.134.156-.199.208-.25.426-.491.656-.722l.017-.018a11.17 11.17 0 0 1 1.587-1.313c.065-.044.134-.084.2-.127.212-.138.428-.271.65-.395.102-.057.206-.108.309-.161a10.598 10.598 0 0 1 .957-.438 11.374 11.374 0 0 1 .979-.339c.197-.058.398-.107.599-.154.134-.031.268-.064.404-.091.222-.043.448-.074.675-.104.119-.015.236-.036.355-.047.349-.032.7-.052 1.057-.052.341 0 .677.021 1.01.051.104.009.207.023.311.036.234.028.465.064.694.106.111.021.222.041.333.065.244.053.484.117.721.186.08.023.161.042.24.066.293.093.579.2.861.316.135.056.266.119.399.18.154.071.306.143.456.22a11.167 11.167 0 0 1 .81.466c.151.095.302.189.449.292C51.13 36.974 53 40.271 53 44c0 6.065-4.935 11-11 11z"/>
    </g>
</svg>
