<svg xmlns="http://www.w3.org/2000/svg" width="55" height="57" viewBox="0 0 55 57">
    <g fill="#ABB2C1" fill-rule="nonzero">
        <path d="M54.188 41.863l-1.444-.277a1.934 1.934 0 0 1-1.462-1.216 1.932 1.932 0 0 1 .245-1.885l.907-1.236a1 1 0 0 0-.1-1.299l-1.959-1.958a1.003 1.003 0 0 0-1.268-.121l-1.217.824a1.933 1.933 0 0 1-1.895.175 1.935 1.935 0 0 1-1.16-1.508l-.233-1.515a.998.998 0 0 0-.987-.847h-2.77a1 1 0 0 0-.982.812l-.358 1.865a1.94 1.94 0 0 1-1.181 1.448 1.934 1.934 0 0 1-1.86-.189l-1.572-1.064a1.003 1.003 0 0 0-1.268.121l-1.959 1.958a1 1 0 0 0-.1 1.299l.907 1.236c.408.556.498 1.243.245 1.885a1.934 1.934 0 0 1-1.462 1.216l-1.444.277a1 1 0 0 0-.811.982v2.77a1 1 0 0 0 .848.988l1.515.233a1.937 1.937 0 0 1 1.508 1.16 1.938 1.938 0 0 1-.175 1.895l-.824 1.217a1 1 0 0 0 .121 1.268l1.958 1.959c.348.349.899.39 1.299.1l1.236-.907a1.934 1.934 0 0 1 1.885-.245 1.934 1.934 0 0 1 1.216 1.462l.277 1.444a1 1 0 0 0 .982.81h2.77a1 1 0 0 0 .988-.848l.164-1.065a1.955 1.955 0 0 1 1.193-1.522 1.957 1.957 0 0 1 1.921.232l.869.638c.4.293.951.25 1.299-.1l1.958-1.959a1 1 0 0 0 .121-1.268l-.824-1.217a1.938 1.938 0 0 1-.175-1.895 1.935 1.935 0 0 1 1.508-1.16l1.515-.233a1 1 0 0 0 .847-.988v-2.77c0-.479-.341-.891-.812-.982zM53 44.758l-.667.103a3.95 3.95 0 0 0-3.036 2.337 3.95 3.95 0 0 0 .352 3.815l.361.533-.768.768-.177-.13a3.947 3.947 0 0 0-3.869-.467 3.942 3.942 0 0 0-2.405 3.065l-.033.218h-1.086l-.121-.633a3.952 3.952 0 0 0-2.449-2.947 3.963 3.963 0 0 0-3.8.494l-.544.399-.768-.768.361-.533a3.953 3.953 0 0 0 .352-3.815 3.95 3.95 0 0 0-3.036-2.337L31 44.758v-1.086l.633-.121a3.952 3.952 0 0 0 2.947-2.449 3.956 3.956 0 0 0-.494-3.8l-.399-.544.768-.768.889.602a3.96 3.96 0 0 0 3.747.381 3.963 3.963 0 0 0 2.38-2.919L41.672 33h1.086l.103.667a3.95 3.95 0 0 0 2.337 3.036 3.952 3.952 0 0 0 3.815-.352l.533-.361.768.768-.399.544a3.952 3.952 0 0 0-.494 3.8 3.953 3.953 0 0 0 2.947 2.449l.632.121v1.086z"/>
        <path d="M42 39c-2.757 0-5 2.243-5 5s2.243 5 5 5 5-2.243 5-5-2.243-5-5-5zm0 8c-1.654 0-3-1.346-3-3s1.346-3 3-3 3 1.346 3 3-1.346 3-3 3zM25 41c-.827 0-1.637-.016-2.432-.044-.486-.018-.955-.049-1.429-.077-.293-.017-.595-.028-.883-.049a56.814 56.814 0 0 1-1.847-.167c-.114-.012-.233-.02-.346-.032a57.277 57.277 0 0 1-2.026-.259l-.051-.007c-3.385-.5-6.29-1.263-8.561-2.169l-.036-.014a21.248 21.248 0 0 1-1.186-.519l-.132-.062a15.908 15.908 0 0 1-.945-.497c-.07-.04-.144-.079-.212-.12a11.544 11.544 0 0 1-.721-.463c-.086-.06-.175-.12-.257-.18a8.234 8.234 0 0 1-.526-.426c-.089-.079-.178-.157-.26-.236a5.42 5.42 0 0 1-.582-.669 3.538 3.538 0 0 1-.373-.666 2.449 2.449 0 0 1-.116-.362C2.041 33.823 2 33.661 2 33.5v-8.207c.028.026.063.051.092.077.219.191.44.382.69.566C6.549 28.786 14.082 31 25 31c10.873 0 18.386-2.196 22.169-5.028.302-.22.574-.447.83-.678L48 29a1 1 0 1 0 2 0V9a.98.98 0 0 0-.146-.49C48.696 4.22 40.077 0 25 0S1.303 4.22.146 8.51A.98.98 0 0 0 0 9v37c0 .161.042.313.115.448 1.139 4.833 10.691 7.68 19.81 8.364a.998.998 0 0 0 1.072-.922 1 1 0 0 0-.922-1.072C8.961 51.984 2.484 48.6 2.032 45.838A.963.963 0 0 0 2 45.707v-8.414c.028.026.063.051.092.077.219.191.44.382.69.566C6.549 40.786 14.082 43 25 43a1 1 0 1 0 0-2zM2.601 13.797c.3.236.624.469.975.696.073.047.155.093.231.14a17.11 17.11 0 0 0 1.3.731c.365.186.748.366 1.151.542.066.029.126.059.192.087.469.199.967.389 1.486.572.143.051.293.099.44.149.412.139.838.272 1.279.401.159.046.315.094.478.139.585.162 1.189.316 1.823.458.087.02.181.037.269.056a43.778 43.778 0 0 0 2.348.444c.567.093 1.151.179 1.75.257.154.02.302.042.457.062.744.09 1.513.167 2.305.233.195.016.398.028.596.042.633.046 1.28.084 1.942.114.241.011.481.022.727.03.862.029 1.74.05 2.65.05.91 0 1.788-.021 2.65-.05.245-.008.485-.02.727-.03.662-.03 1.309-.068 1.942-.114.198-.015.401-.026.596-.042a60.436 60.436 0 0 0 2.305-.233c.156-.019.303-.042.457-.062a53.904 53.904 0 0 0 2.363-.361 43.778 43.778 0 0 0 1.735-.34c.088-.019.182-.036.269-.056a37.577 37.577 0 0 0 1.823-.458c.163-.045.319-.092.478-.139.441-.128.867-.262 1.279-.401.147-.05.297-.098.44-.149a27.553 27.553 0 0 0 1.486-.572c.067-.028.127-.059.192-.087a21.377 21.377 0 0 0 1.519-.735c.327-.175.638-.354.932-.538.076-.047.158-.093.231-.14.351-.227.675-.459.975-.696.075-.06.142-.12.214-.18.13-.108.267-.215.387-.324V21.5c0 .161-.041.323-.079.485a2.412 2.412 0 0 1-.116.362 3.538 3.538 0 0 1-.592.943 5.42 5.42 0 0 1-.363.392c-.081.079-.17.157-.26.236a8.234 8.234 0 0 1-.526.426c-.082.061-.17.12-.257.18-.226.156-.462.311-.721.463-.068.041-.141.08-.212.12-.297.168-.609.334-.945.497l-.132.062c-.375.177-.767.351-1.186.519l-.036.014c-2.271.907-5.176 1.67-8.561 2.169l-.051.007a52.95 52.95 0 0 1-2.026.259c-.113.012-.232.02-.346.032-.605.063-1.218.121-1.847.167-.288.021-.59.032-.883.049-.474.028-.943.059-1.429.077a69.019 69.019 0 0 1-4.864-.003c-.486-.018-.955-.049-1.429-.077-.293-.017-.595-.028-.883-.049a56.814 56.814 0 0 1-1.847-.167c-.114-.012-.233-.02-.346-.032a57.277 57.277 0 0 1-2.077-.266c-3.385-.5-6.29-1.263-8.561-2.169a21.248 21.248 0 0 1-1.222-.533l-.132-.062a15.908 15.908 0 0 1-.945-.497c-.07-.04-.144-.079-.212-.12a11.544 11.544 0 0 1-.721-.463c-.086-.06-.175-.12-.257-.18a8.234 8.234 0 0 1-.526-.426c-.089-.079-.178-.157-.26-.236a5.42 5.42 0 0 1-.582-.669 3.538 3.538 0 0 1-.373-.666 2.449 2.449 0 0 1-.116-.362C2.041 21.823 2 21.661 2 21.5v-8.207c.12.109.257.216.387.324.072.06.139.12.214.18zM25 2c13.555 0 23 3.952 23 7.5S38.555 17 25 17 2 13.048 2 9.5 11.445 2 25 2z"/>
    </g>
</svg>
