<svg xmlns="http://www.w3.org/2000/svg" width="20" height="16" viewBox="0 0 20 16">
    <path fill="#AFB5C4" fill-rule="nonzero" d="M1.92 4.844c-.462-.313-.897-.742-1.306-1.29C.204 3.009 0 2.5 0 2.032 0 1.451.154.967.463.581.772.192 1.213 0 1.786 0h16.428c.484 0 .902.175 1.256.525.353.35.53.77.53 1.26 0 .588-.182 1.15-.547 1.686a5.302 5.302 0 0 1-1.361 1.372 9870.36 9870.36 0 0 0-5.224 3.628c-.074.052-.232.165-.474.34-.242.175-.443.317-.603.424-.16.108-.353.229-.58.363a3.37 3.37 0 0 1-.642.301c-.2.067-.387.1-.558.1H9.99c-.171 0-.357-.033-.558-.1a3.367 3.367 0 0 1-.642-.3c-.227-.135-.42-.256-.58-.364-.16-.107-.361-.249-.603-.424a52.3 52.3 0 0 0-.474-.34 559.695 559.695 0 0 0-2.924-2.037 516.714 516.714 0 0 1-2.288-1.59zm16.964 1.194c.424-.29.796-.614 1.116-.971v8.861c0 .492-.175.912-.525 1.261-.35.35-.77.525-1.26.525H1.784a1.72 1.72 0 0 1-1.26-.525A1.72 1.72 0 0 1 0 13.93V5.066c.327.364.703.688 1.127.97C3.821 7.869 5.67 9.153 6.674 9.889c.424.313.768.557 1.032.731.265.175.616.354 1.055.536.44.182.848.273 1.228.273h.022c.38 0 .789-.09 1.228-.273.439-.182.79-.36 1.055-.536.264-.174.608-.418 1.032-.73 1.265-.916 3.118-2.2 5.558-3.851z"/>
</svg>
