<svg xmlns="http://www.w3.org/2000/svg" width="16" height="29" viewBox="0 0 16 29">
    <path fill="#AFB5C4" fill-rule="nonzero" d="M14.84 0H1.154C.533 0 .029.5.029 1.124V27c0 .62.508 1.124 1.124 1.124H14.84c.62 0 1.124-.5 1.124-1.124V1.128C15.965.508 15.46 0 14.84 0zM7.998.94c.468 0 .844.376.844.844a.842.842 0 0 1-.844.844.842.842 0 0 1-.844-.844c0-.468.376-.844.844-.844zm.044 26.248a1.173 1.173 0 0 1-1.176-1.176c0-.652.524-1.176 1.176-1.176a1.175 1.175 0 1 1 0 2.352zm6.52-4.216a.563.563 0 0 1-.564.564h-12a.563.563 0 0 1-.564-.564V4.128c0-.312.252-.564.564-.564h12c.312 0 .564.252.564.564v18.844z"/>
</svg>
